<svg width="90" height="90" viewBox="0 0 90 90" fill="none" xmlns="http://www.w3.org/2000/svg">
<rect width="90" height="90" rx="15" fill="white"/>
<g clip-path="url(#clip0_17_1988)">
<path d="M64.9719 65.2812H63.087V37.9132C63.087 36.6393 62.0506 35.603 60.7769 35.603H56.5639C55.29 35.603 54.2537 36.6394 54.2537 37.9132V65.2812H49.4677V50.313C49.4677 49.0392 48.4313 48.0029 47.1575 48.0029H42.9445C41.6706 48.0029 40.6343 49.0393 40.6343 50.313V65.2812H35.8483V57.5293C35.8483 56.2554 34.8119 55.2191 33.5381 55.2191H29.325C28.0512 55.2191 27.0149 56.2555 27.0149 57.5293V65.2812H25.0283C24.5537 65.2812 24.1689 65.6659 24.1689 66.1406C24.1689 66.6152 24.5537 67 25.0283 67H64.9719C65.4465 67 65.8313 66.6152 65.8313 66.1406C65.8313 65.6659 65.4465 65.2812 64.9719 65.2812ZM34.1294 65.2812H28.7335V57.5293C28.7335 57.2032 28.9988 56.9379 29.3249 56.9379H33.5379C33.8641 56.9379 34.1294 57.2032 34.1294 57.5293V65.2812ZM47.7488 65.2812H42.353V50.313C42.353 49.9869 42.6183 49.7216 42.9444 49.7216H47.1574C47.4834 49.7216 47.7488 49.9869 47.7488 50.313V65.2812ZM61.3683 65.2812H55.9724V37.9132C55.9724 37.5871 56.2377 37.3218 56.5639 37.3218H60.7769C61.103 37.3218 61.3683 37.5871 61.3683 37.9132V65.2812Z" fill="#1A8597"/>
<path d="M63.0844 23.9037C63.0964 23.6692 63.0139 23.4307 62.8348 23.2516C62.6557 23.0725 62.4173 22.9899 62.1827 23.0021C62.1689 23.0015 62.1552 23 62.1412 23H56.9419C56.4673 23 56.0826 23.3847 56.0826 23.8594C56.0826 24.334 56.4673 24.7188 56.9419 24.7188H60.1523L51.6568 33.2144L48.453 30.0106C48.2919 29.8495 48.0733 29.7589 47.8454 29.7589C47.6175 29.7589 47.3988 29.8495 47.2377 30.0106L31.7888 45.4596C31.4532 45.7952 31.4532 46.3393 31.7888 46.675C31.9566 46.8427 32.1765 46.9265 32.3965 46.9265C32.6164 46.9265 32.8364 46.8427 33.0041 46.6748L47.8454 31.8335L51.0491 35.0373C51.3847 35.3729 51.9289 35.3729 52.2645 35.0373L61.3677 25.9342V28.8397C61.3677 29.3143 61.7525 29.6991 62.2271 29.6991C62.7017 29.6991 63.0865 29.3143 63.0865 28.8397V23.9453C63.0865 23.9313 63.085 23.9176 63.0844 23.9037Z" fill="#1A8597"/>
<path d="M29.5 49.9253C29.9746 49.9253 30.3594 49.5405 30.3594 49.0659C30.3594 48.5913 29.9746 48.2065 29.5 48.2065C29.0254 48.2065 28.6406 48.5913 28.6406 49.0659C28.6406 49.5405 29.0254 49.9253 29.5 49.9253Z" fill="#1A8597"/>
</g>
<defs>
<clipPath id="clip0_17_1988">
<rect width="44" height="44" fill="white" transform="translate(23 23)"/>
</clipPath>
</defs>
</svg>
