<svg width="90" height="90" viewBox="0 0 90 90" fill="none" xmlns="http://www.w3.org/2000/svg">
<rect width="90" height="90" rx="15" fill="white"/>
<g clip-path="url(#clip0_17_2004)">
<path d="M66.3555 59.2568C65.9994 59.2568 65.7109 59.5453 65.7109 59.9013V64.2079C65.7109 64.2677 65.6623 64.3164 65.6024 64.3164H63.1534V54.8996C63.1534 54.5437 62.8649 54.2551 62.5088 54.2551C62.1528 54.2551 61.8643 54.5437 61.8643 54.8996V64.3165H57.1317L58.4126 62.9074C58.6105 62.6897 58.7037 62.3806 58.6622 62.0804C58.6612 62.074 58.6603 62.0676 58.6592 62.0611L57.2193 53.5537L57.4842 53.1549L57.5533 53.2038C57.7895 53.3717 58.0908 53.4329 58.3823 53.3601C58.6685 53.2885 58.9084 53.0959 59.0402 52.8319V52.8318L60.5054 49.8953L63.8522 51.1915C63.9843 51.2489 65.7106 52.0404 65.7106 54.1V56.8933C65.7107 57.2493 65.9992 57.5379 66.3552 57.5379C66.7113 57.5379 66.9997 57.2493 66.9997 56.8934V54.1001C66.9997 51.1258 64.4487 50.0429 64.3402 49.9982C64.336 49.9965 64.332 49.9949 64.3279 49.9933L58.6288 47.7861V46.6122C59.5184 45.8965 60.1431 44.865 60.3307 43.6891C60.7744 43.6334 61.1861 43.4558 61.5277 43.162C62.0175 42.7407 62.2986 42.1277 62.2986 41.4804C62.2986 40.9636 62.1193 40.4691 61.7981 40.0764V38.3372C61.7981 34.9336 59.0291 32.1646 55.6256 32.1646C54.0975 32.1646 52.6985 32.7239 51.6194 33.647C51.6054 33.1531 51.4287 32.6825 51.1206 32.3058V30.5667C51.1206 27.163 48.3515 24.394 44.9481 24.394C41.5444 24.394 38.7754 27.1631 38.7754 30.5667V32.3512C38.4656 32.7214 38.2923 33.1677 38.277 33.6415C37.5885 33.0531 36.7644 32.6101 35.846 32.3683C35.5012 32.2775 35.1491 32.4832 35.0585 32.8274C34.9678 33.1717 35.1734 33.5243 35.5176 33.6149C37.6586 34.1787 39.1539 36.1206 39.1539 38.3371V39.3011C39.1261 39.2953 39.0367 39.2799 39.0332 39.2794C39.0245 39.0975 38.9784 38.9864 38.8792 38.8437C38.7142 38.6066 38.4179 38.3113 37.4649 37.2869C37.1253 36.9221 36.576 36.8551 36.159 37.1277C34.5266 38.194 32.5434 38.7375 30.703 38.6295C30.1035 38.5943 29.7291 38.8577 29.5695 39.2894C29.5552 39.2917 29.3958 39.3239 29.3869 39.326V38.3371C29.3869 36.1999 30.8151 34.2773 32.8598 33.6614C33.2006 33.5587 33.3937 33.1992 33.2911 32.8583C33.1884 32.5174 32.8283 32.3243 32.4879 32.427C31.2444 32.8015 30.1266 33.5813 29.3407 34.6226C28.5275 35.6997 28.0977 36.9842 28.0977 38.3372V40.1218C27.773 40.5097 27.5975 40.9812 27.5975 41.4804C27.5975 42.5838 28.4104 43.5461 29.5687 43.6896C29.7585 44.838 30.3815 45.9393 31.3648 46.6881V47.7864L25.672 49.9935C25.668 49.995 25.664 49.9967 25.6599 49.9983C25.5511 50.0429 23 51.1257 23 54.1V64.2079C23 64.9786 23.627 65.6056 24.3978 65.6056H44.2468C44.5242 65.6056 44.7823 65.5233 45 65.3834C45.2176 65.5233 45.4758 65.6056 45.7533 65.6056H65.6024C66.3731 65.6056 67.0001 64.9786 67.0001 64.2079V59.9013C67 59.5453 66.7115 59.2568 66.3555 59.2568ZM29.5056 42.3579C29.1278 42.2207 28.8864 41.8712 28.8864 41.4802C28.8864 41.1009 29.1614 40.7893 29.5056 40.6414V42.3579ZM59.2981 49.4277L58.033 51.9633C58.0328 51.9632 56.6276 50.9652 56.6077 50.951C57.2139 50.2027 56.9291 50.5542 58.1896 48.9984L59.2981 49.4277ZM55.676 50.0531L54.009 47.9955V47.3772C54.5509 47.5646 55.1345 47.651 55.6839 47.6512C55.684 47.6512 55.6842 47.6512 55.6843 47.6512H55.6844C56.2524 47.6511 56.8275 47.5432 57.3397 47.3505V47.9995L55.676 50.0531ZM56.4327 52.4081L56.1956 52.765H55.1565L54.9194 52.4081L55.6761 51.8707L56.4327 52.4081ZM44.9983 42.2825L43.3314 40.2249V39.6066C43.8711 39.7932 44.4542 39.8804 45.0063 39.8806C45.0064 39.8806 45.0066 39.8806 45.0067 39.8806H45.0067C45.5738 39.8806 46.1488 39.773 46.6621 39.5799V40.2289L44.9983 42.2825ZM45.755 44.6376L45.5179 44.9945H44.4788L44.2417 44.6376L44.9984 44.1002L45.755 44.6376ZM39.9226 35.8572C40.028 35.8859 40.1362 35.9054 40.2462 35.919C40.4359 37.0674 41.059 38.1687 42.0423 38.9175V40.0158L40.7273 40.5255C40.6511 40.3654 40.5558 40.2146 40.4427 40.0763V38.3372C40.4427 37.4625 40.2585 36.6217 39.9226 35.8572ZM48.4234 35.1747C48.4234 37.0613 46.8844 38.5912 45.0067 38.5912C42.8883 38.5912 41.4726 36.9494 41.4726 35.1747V32.1556C43.5078 32.237 45.6221 31.6338 47.3508 30.5579C47.932 31.1811 48.2778 31.5432 48.4234 31.7113C48.4234 33.316 48.4234 33.9356 48.4234 35.1747ZM49.6532 35.9186C49.7625 35.9048 49.8703 35.8852 49.975 35.8566C49.6402 36.6163 49.4529 37.4551 49.4529 38.3372V40.1217C49.3538 40.24 49.2686 40.3661 49.198 40.4984L47.9512 40.0156V38.8417C48.8408 38.1259 49.4656 37.0944 49.6532 35.9186ZM42.4824 41.2288L44.0647 43.1818L42.9857 43.9482C42.9851 43.9487 42.9846 43.9491 42.984 43.9495L42.6416 44.1928L41.3763 41.6572L42.4824 41.2288ZM46.4818 42.4993L47.5119 41.2278L48.6204 41.657L47.3553 44.1928L47.0121 43.9491C47.0118 43.9488 47.0114 43.9485 47.0111 43.9482L45.9301 43.1804L46.4818 42.4993ZM46.8066 45.3843L46.8756 45.4333C47.1166 45.6045 47.419 45.661 47.7047 45.5895C47.9909 45.518 48.2308 45.3254 48.3626 45.0614V45.0613L49.4504 42.8811C49.8241 43.3418 50.3647 43.6219 50.9214 43.6914C51.118 44.9238 51.7841 45.9755 52.72 46.6881V47.7864L47.2403 49.9108L46.5416 45.7832L46.8066 45.3843ZM53.1601 48.9994L54.7423 50.9524C54.0505 51.4439 53.355 51.9379 53.3192 51.9633L52.054 49.4278L53.1601 48.9994ZM59.1009 42.9453C59.1011 44.7859 57.6064 46.3619 55.6844 46.3619C53.4937 46.3619 52.1502 44.646 52.1502 42.9453V39.9262C54.1709 40.0069 56.288 39.4117 58.0283 38.3285C58.6095 38.9517 58.9553 39.3138 59.101 39.4819C59.1009 41.0865 59.1009 41.7062 59.1009 42.9453ZM61.0096 41.4803C61.0096 41.872 60.7674 42.2208 60.3903 42.3579V40.6045C60.7801 40.7465 61.0096 41.1027 61.0096 41.4803ZM50.742 38.3371C50.742 35.6444 52.9328 33.4536 55.6255 33.4536C58.3183 33.4536 60.5089 35.6444 60.5089 38.3371V39.3011C60.4796 39.295 60.399 39.2811 60.3882 39.2794C60.3795 39.0973 60.3332 38.9859 60.2342 38.8437C60.0649 38.6004 59.7718 38.3101 58.8199 37.2869C58.4875 36.9301 57.9394 36.8497 57.514 37.1277C55.9259 38.1652 53.9194 38.7512 52.0101 38.6272C51.4738 38.592 51.0853 38.8546 50.9245 39.2895C50.9101 39.2918 50.751 39.3239 50.7419 39.3261L50.742 38.3371ZM50.8611 40.6415V42.357C50.4821 42.2204 50.2418 41.8699 50.2418 41.4802C50.2417 41.1009 50.5165 40.7895 50.8611 40.6415ZM50.3318 33.7097C50.3318 33.9811 50.2143 34.2378 50.0095 34.4139C49.9216 34.4895 49.8214 34.5476 49.7125 34.5872V32.8339C50.0979 32.9738 50.3318 33.3281 50.3318 33.7097ZM44.9478 25.6831C47.6406 25.6831 49.8313 27.8738 49.8313 30.5666V31.5305C49.8021 31.5245 49.7214 31.5105 49.7106 31.5089C49.7011 31.3115 49.6442 31.1901 49.5281 31.0331C49.3555 30.7996 49.0374 30.4784 48.1423 29.5163C47.8043 29.1533 47.2553 29.0833 46.8364 29.3571C45.1592 30.4528 43.1246 30.986 41.2805 30.854C40.8293 30.8198 40.4045 31.0924 40.2469 31.5188C40.2326 31.5211 40.0733 31.5532 40.0644 31.5554V30.5667C40.0644 27.8738 42.2551 25.6831 44.9478 25.6831ZM40.1833 32.8709V34.5873C39.8054 34.4502 39.564 34.1007 39.564 33.7097C39.564 33.3326 39.8368 33.0198 40.1833 32.8709ZM39.0348 40.6045C39.3954 40.7357 39.627 41.0503 39.6499 41.4242C39.6788 41.84 39.4233 42.216 39.0348 42.3571V40.6045ZM38.9751 43.6913C39.583 43.6152 40.141 43.2948 40.5069 42.802L41.6342 45.0613C41.6342 45.0613 41.6342 45.0613 41.6343 45.0614C41.7661 45.3255 42.0059 45.518 42.2922 45.5895C42.5751 45.6603 42.8779 45.6061 43.1212 45.4333L43.1902 45.3843L43.4551 45.7832L42.7567 49.9096L37.2736 47.786V46.6126H37.2735C38.1864 45.8766 38.7918 44.8366 38.9751 43.6913ZM34.3205 50.0531L32.6536 47.9955V47.3772C33.1933 47.5638 33.7765 47.651 34.3286 47.6511C34.3287 47.6511 34.3289 47.6511 34.3289 47.6511C34.9052 47.6511 35.4793 47.5404 35.9843 47.3505V47.9995L34.3205 50.0531ZM35.0773 52.4081L34.8402 52.765H33.8011L33.564 52.4081L34.3207 51.8707L35.0773 52.4081ZM36.8341 48.9984L37.9427 49.4278L36.6775 51.9633L36.3343 51.7196C36.334 51.7194 36.3336 51.719 36.3333 51.7188L35.2523 50.951L36.8341 48.9984ZM30.7948 42.9453V39.9262C32.8409 40.0079 34.9565 39.3967 36.6729 38.3285C37.2486 38.9459 37.5997 39.3136 37.7456 39.4819C37.7456 41.0866 37.7456 41.7063 37.7456 42.9453C37.7456 44.8199 36.2172 46.3619 34.3289 46.3619C32.2267 46.3619 30.7948 44.7388 30.7948 42.9453ZM31.8047 48.9994L33.387 50.9524L32.308 51.7188C32.3074 51.7192 32.3069 51.7196 32.3063 51.7201L31.9639 51.9633L30.6986 49.4278L31.8047 48.9994ZM28.1359 64.3166V54.8996C28.1359 54.5437 27.8474 54.2551 27.4913 54.2551C27.1353 54.2551 26.8468 54.5437 26.8468 54.8996V64.3165H24.3978C24.3378 64.3165 24.2891 64.2678 24.2891 64.208V54.1C24.2891 52.0299 26.0334 51.2408 26.1463 51.192L29.4911 49.8953L30.9564 52.8318C30.9564 52.8318 30.9564 52.8318 30.9565 52.8319C31.0883 53.096 31.3281 53.2885 31.6144 53.3601C31.8974 53.4308 32.2002 53.3767 32.4435 53.2038L32.5125 53.1549L32.7774 53.5537L31.3376 62.0611C31.3364 62.0675 31.3355 62.074 31.3345 62.0804C31.2931 62.3804 31.3864 62.6895 31.5843 62.9075L32.865 64.3165H28.1359V64.3166ZM32.6313 62.1426L34.0002 54.0541H34.6412L36.0101 62.1426L34.3207 64.0012L32.6313 62.1426ZM44.3553 64.2079C44.3553 64.2678 44.3067 64.3165 44.2468 64.3165H41.7979V54.8996C41.7979 54.5437 41.5094 54.2551 41.1534 54.2551C40.7974 54.2551 40.5089 54.5437 40.5089 54.8996V64.3165H35.7763L37.0572 62.9074C37.255 62.6897 37.3483 62.3806 37.3068 62.0804C37.3058 62.074 37.3049 62.0676 37.3038 62.0611L35.8639 53.5537L36.1288 53.1549L36.1978 53.2038C36.3703 53.3264 36.5745 53.3903 36.7817 53.3903C37.1597 53.3903 37.5118 53.1785 37.6849 52.8319V52.8318L39.15 49.8953L42.4969 51.1915C43.4724 51.6159 44.3553 52.7103 44.3553 54.1L44.3553 64.2079ZM45 51.7579C44.733 51.3277 44.3775 50.9296 43.949 50.5899L44.6779 46.2837H45.3189L46.0481 50.5921C45.6081 50.9415 45.2573 51.3431 45 51.7579ZM49.4912 64.3166V54.8996C49.4912 54.5437 49.2027 54.2551 48.8467 54.2551C48.4906 54.2551 48.2022 54.5437 48.2022 54.8996V64.3165H45.7532C45.6933 64.3165 45.6446 64.2678 45.6446 64.208V54.1C45.6446 53.3338 45.8849 52.6281 46.3967 52.0352C46.738 51.6437 47.1906 51.3268 47.5019 51.192L50.8466 49.8952L52.3119 52.8318C52.3119 52.8318 52.3119 52.8318 52.312 52.8319C52.4438 53.096 52.6836 53.2885 52.9699 53.3601C53.2529 53.4308 53.5556 53.3767 53.7989 53.2038L53.8679 53.1549L54.1329 53.5537L52.693 62.0611C52.6919 62.0675 52.6909 62.074 52.69 62.0804C52.6486 62.3804 52.7418 62.6895 52.9397 62.9075L54.2204 64.3165H49.4912V64.3166ZM53.9866 62.1427L55.3556 54.0542H55.9966L57.3656 62.1427L55.676 64.0013L53.9866 62.1427Z" fill="#1A8597"/>
</g>
<defs>
<clipPath id="clip0_17_2004">
<rect width="44" height="44" fill="white" transform="translate(23 23)"/>
</clipPath>
</defs>
</svg>
