<svg width="90" height="90" viewBox="0 0 90 90" fill="none" xmlns="http://www.w3.org/2000/svg">
<rect width="90" height="90" rx="15" fill="white"/>
<g clip-path="url(#clip0_17_1976)">
<path d="M45.9453 30.5195C45.4708 30.5195 45.0859 30.9043 45.0859 31.3789C45.0859 31.8535 45.4708 32.2383 45.9453 32.2383H48.7707C48.7765 34.2842 49.4405 36.1952 50.5714 37.755C49.3997 38.8971 47.8647 39.6768 46.1392 39.8934C45.6683 39.9525 45.3344 40.3822 45.3935 40.8531C45.4481 41.2877 45.8181 41.6055 46.2451 41.6055C46.2807 41.6055 46.3169 41.6032 46.3532 41.5987C48.4289 41.3381 50.2801 40.4121 51.7032 39.0519C53.1263 40.4121 54.9775 41.3381 57.0533 41.5987C57.0896 41.6032 57.1256 41.6055 57.1614 41.6055C57.5882 41.6055 57.9583 41.2876 58.0129 40.8531C58.072 40.3821 57.7383 39.9525 57.2672 39.8934C55.5417 39.6768 54.0067 38.8972 52.835 37.755C53.9659 36.1951 54.6299 34.2842 54.6357 32.2383H57.4609C57.9355 32.2383 58.3203 31.8535 58.3203 31.3789C58.3203 30.9043 57.9355 30.5195 57.4609 30.5195H52.5625V28.2852C52.5625 27.8105 52.1777 27.4258 51.7031 27.4258C51.2286 27.4258 50.8438 27.8105 50.8438 28.2852V30.5195H45.9453ZM51.7031 36.3635C50.9382 35.1642 50.4949 33.7466 50.4897 32.2383H52.9165C52.9113 33.7466 52.4681 35.1642 51.7031 36.3635Z" fill="#1A8597"/>
<path d="M62.442 23H55.5703C55.0958 23 54.7109 23.3847 54.7109 23.8594C54.7109 24.334 55.0958 24.7188 55.5703 24.7188H62.442C64.0077 24.7188 65.2812 25.9924 65.2812 27.558V41.4733C65.2812 43.0388 64.0076 44.3125 62.442 44.3125C61.9674 44.3125 61.5826 44.6972 61.5826 45.1719V48.8081L56.558 44.5183C56.4024 44.3855 56.2046 44.3125 56 44.3125H40.9642C39.3986 44.3125 38.125 43.0388 38.125 41.4732V27.558C38.125 25.9924 39.3986 24.7188 40.9642 24.7188H47.8359C48.3105 24.7188 48.6953 24.334 48.6953 23.8594C48.6953 23.3847 48.3105 23 47.8359 23H40.9642C38.451 23 36.4062 25.0447 36.4062 27.558V38.4688H27.558C25.0447 38.4688 23 40.5135 23 43.0268V56.942C23 59.1616 24.5948 61.0157 26.6986 61.4188V66.1406C26.6986 66.476 26.8937 66.7806 27.1981 66.921C27.3132 66.974 27.4359 67 27.5579 67C27.7587 67 27.9573 66.9297 28.116 66.7942L34.3169 61.5H49.0357C51.549 61.5 53.5938 59.4553 53.5938 56.942V46.0312H55.6831L61.884 51.3254C62.0427 51.461 62.2413 51.5313 62.4421 51.5312C62.5641 51.5312 62.6868 51.5053 62.8019 51.4523C63.1063 51.3119 63.3014 51.0072 63.3014 50.6719L63.3015 45.95C65.4053 45.5469 67.0001 43.6928 67.0001 41.4733V27.558C67 25.0447 64.9553 23 62.442 23ZM38.3109 47.02L40.0135 51.5314H36.5927L38.3109 47.02ZM51.875 56.942C51.875 58.5076 50.6014 59.7812 49.0358 59.7812H34C33.7954 59.7812 33.5976 59.8542 33.442 59.9871L28.4173 64.277V60.6406C28.4173 60.166 28.0325 59.7812 27.558 59.7812C25.9923 59.7812 24.7188 58.5076 24.7188 56.942V43.0268C24.7188 41.4612 25.9923 40.1875 27.558 40.1875H36.4062V41.4732C36.4062 42.6203 36.8331 43.6689 37.535 44.471C37.442 44.5677 37.3658 44.6827 37.3127 44.8125C37.3101 44.819 37.3074 44.8255 37.305 44.8322L33.6265 54.4905C33.4576 54.934 33.6801 55.4305 34.1237 55.5994C34.5672 55.7683 35.0636 55.5457 35.2326 55.1022L35.938 53.2503H40.662L41.3599 55.0997C41.4898 55.4439 41.8167 55.6559 42.1641 55.6559C42.2649 55.6559 42.3674 55.638 42.4673 55.6003C42.9114 55.4327 43.1354 54.9369 42.9678 54.4928L39.7075 45.8537C40.107 45.9684 40.5282 46.0312 40.9639 46.0312H51.875V56.942Z" fill="#1A8597"/>
<path d="M51.7031 24.7188C51.9291 24.7188 52.1509 24.6268 52.3106 24.467C52.4705 24.3071 52.5625 24.0854 52.5625 23.8594C52.5625 23.6334 52.4705 23.4116 52.3106 23.2518C52.1509 23.092 51.9291 23 51.7031 23C51.4771 23 51.2554 23.092 51.0955 23.2518C50.9356 23.4116 50.8438 23.6334 50.8438 23.8594C50.8438 24.0854 50.9356 24.3071 51.0955 24.467C51.2555 24.6268 51.4771 24.7188 51.7031 24.7188Z" fill="#1A8597"/>
</g>
<defs>
<clipPath id="clip0_17_1976">
<rect width="44" height="44" fill="white" transform="translate(23 23)"/>
</clipPath>
</defs>
</svg>
