<svg width="412" height="38" viewBox="0 0 412 38" fill="none" xmlns="http://www.w3.org/2000/svg">
<g clip-path="url(#clip0_17_1565)">
<g clip-path="url(#clip1_17_1565)">
<g clip-path="url(#clip2_17_1565)">
<path d="M83.5143 4.36608C83.2415 1.37565 87.0669 2.957 88.8396 2.63642C89.287 10.4211 88.909 18.2393 89.0286 26.0431C88.9018 28.9139 89.3013 31.8589 88.854 34.7154C87.1578 34.7776 85.141 35.268 83.6339 34.4498C83.3468 24.4403 83.5788 14.3924 83.5143 4.36608Z" fill="white"/>
<path d="M41.4925 11.1626C45.7102 8.84446 51.4064 9.90188 54.6504 13.4402C53.6169 14.8107 52.3445 15.9834 50.8944 16.9019C48.8777 14.7727 44.66 13.8827 43.0906 17C44.7844 20.4043 49.2628 19.9569 52.0571 22C55.7413 23.9617 56.2461 29.3205 53.5978 32.3397C52.4016 33.9449 50.4447 34.5526 48.7006 35.3301C44.8729 35.6674 40.6719 34.6507 37.9686 31.7703C36.0284 30.0957 39.2652 28.5885 40.2317 27.3421C42.1576 29.122 44.5116 30.7392 47.3083 30.165C49.3322 30.3756 51.1624 27.5167 49.1791 26.1937C46.3777 24.3995 42.7054 24.2464 40.2126 21.8875C36.904 19.1076 37.7246 13.1531 41.4925 11.1626Z" fill="white"/>
<path d="M61.2919 12.7943C65.7679 8.61962 73.7321 9.05981 77.6364 13.823C80.0287 16.7512 80.9569 20.7943 80.3325 24.5C74.4187 24.5622 68.5072 24.5 62.6005 24.5287C63.3182 26.6364 64.5909 28.7105 66.7129 29.6292C69.6196 30.9043 73.0335 30.0431 75.4282 28.0957C76.5431 29.1124 77.4258 30.3373 78.299 31.5646C75.7201 34.689 71.2871 35.6316 67.4043 35.3349C64.1053 34.3612 60.8325 32.6388 59.0598 29.5622C55.7632 24.39 56.689 16.8947 61.2919 12.7943ZM62.5311 20.0742C66.7632 20.1507 70.988 20.1794 75.2105 20.0598C74.299 17.3636 72.1148 14.6435 68.9761 14.8756C65.8182 14.6507 63.5694 17.3852 62.5383 20.0742H62.5311Z" fill="white"/>
<path d="M94.1906 15.5407C96.8222 11.4427 102.176 9.12926 106.906 10.5814C108.853 11.1149 110.121 12.7345 111.25 14.2943C111.657 13.0479 112.057 11.7943 112.49 10.5527C114.095 10.6149 115.698 10.6938 117.296 10.902V34.6651C115.621 34.7919 113.947 34.847 112.286 34.8829C111.908 33.8876 111.537 32.8924 111.171 31.8972C108.971 34.2369 105.762 35.9259 102.485 35.3996C99.5782 34.8254 96.7887 33.3254 94.9179 31.0001C91.4107 26.7226 91.1308 20.1317 94.1906 15.5407ZM101.526 16.0192C97.9729 17.6436 96.7265 22.2537 98.0495 25.7441C99.1212 28.9187 102.805 30.8876 106.035 29.8781C109.959 28.9403 112.186 24.2513 110.87 20.5312C109.961 16.6269 105.176 14.1412 101.526 16.0312V16.0192Z" fill="white"/>
<path d="M0.654638 2.60049C5.30775 2.57178 9.96564 2.61484 14.6164 2.57178C15.1762 4.51915 15.6451 6.48805 16.0948 8.46412C10.6791 10.0073 5.4866 12.2469 0.647461 15.1268C0.676169 10.9522 0.668992 6.77752 0.654638 2.60049Z" fill="white"/>
<path d="M19.0305 7.68896C18.6932 5.97364 18.2745 4.27747 17.875 2.5813C22.9324 2.61718 27.9994 2.55977 33.0568 2.61718C33.0568 3.81335 33.0712 5.00953 33.0855 6.2057C28.363 6.21766 23.6621 6.799 19.0305 7.68896Z" fill="white"/>
<path d="M19.5283 10.7847C23.9692 9.79041 28.5114 9.31989 33.0618 9.38276C33.014 15.689 33.0331 21.9928 33.0475 28.299C28.5645 28.3281 24.0917 27.87 19.7077 26.933C20.3632 21.5741 20.3824 16.1292 19.5283 10.7847Z" fill="white"/>
<path d="M0.501953 18.8685C5.48557 15.6456 10.9116 13.1651 16.6096 11.5049C17.1288 16.3877 17.246 21.3135 16.6862 26.2034C10.9685 24.5312 5.5809 21.9523 0.501953 18.8685Z" fill="white"/>
<path d="M0.655365 22.5549C5.58199 25.4217 10.8338 27.689 16.2989 29.3085C15.8707 31.1506 15.4377 32.9927 14.9807 34.8372C10.196 34.8372 5.41135 34.8731 0.612305 34.8157C0.717568 30.7224 0.648188 26.6387 0.655365 22.5549Z" fill="white"/>
<path d="M19.2343 30.0049C23.7797 30.9929 28.4257 31.3159 33.0644 31.5121C33.0644 32.6197 33.0788 33.725 33.0931 34.8326C28.0907 34.8757 23.0883 34.847 18.0859 34.847C18.5285 33.2393 18.9209 31.6197 19.2343 30.0049Z" fill="white"/>
</g>
<mask id="mask0_17_1565" style="mask-type:luminance" maskUnits="userSpaceOnUse" x="145" y="0" width="267" height="38">
<path d="M412 0.235107H145.299V37.765H412V0.235107Z" fill="white"/>
</mask>
<g mask="url(#mask0_17_1565)">
<mask id="mask1_17_1565" style="mask-type:luminance" maskUnits="userSpaceOnUse" x="145" y="0" width="267" height="38">
<path d="M412 0.235107H145.299V37.765H412V0.235107Z" fill="white"/>
</mask>
<g mask="url(#mask1_17_1565)">
<path d="M154.083 32.1612L154.447 30.4306C155.268 30.771 156.145 30.955 157.033 30.9733C158.124 30.9733 158.669 30.5945 158.669 29.8368C158.684 29.6595 158.654 29.4814 158.581 29.3198C158.507 29.1582 158.393 29.0188 158.25 28.9154C157.776 28.6322 157.266 28.4137 156.734 28.2652C156.001 28.0421 155.325 27.6576 154.755 27.1389C154.525 26.8922 154.348 26.6007 154.233 26.282C154.118 25.9633 154.069 25.6242 154.088 25.2857C154.067 24.8871 154.136 24.4889 154.29 24.1215C154.444 23.7541 154.679 23.4273 154.977 23.1662C155.698 22.6271 156.583 22.3625 157.477 22.4188C158.385 22.4009 159.286 22.5752 160.124 22.9307L159.73 24.6304C159.055 24.3486 158.334 24.1992 157.603 24.1901C156.619 24.1901 156.128 24.5331 156.128 25.2139C156.118 25.3671 156.144 25.5205 156.202 25.6619C156.261 25.8033 156.352 25.9287 156.467 26.028C156.853 26.2883 157.276 26.49 157.72 26.627C158.195 26.7942 158.589 26.9529 158.902 27.103C159.225 27.2608 159.528 27.4566 159.806 27.6867C160.097 27.9193 160.323 28.2246 160.463 28.5724C160.612 28.9655 160.684 29.3847 160.674 29.8061C160.696 30.2198 160.618 30.6324 160.447 31.0086C160.277 31.385 160.019 31.7137 159.694 31.9665C158.937 32.5072 158.023 32.7757 157.099 32.7294C156.059 32.7585 155.025 32.5594 154.067 32.1458" fill="white"/>
<path d="M168.191 32.5705L167.6 30.3743H163.988C163.79 31.0399 163.593 31.7719 163.397 32.5705H161.312C162.176 29.154 163.319 25.8165 164.731 22.5928H166.827C168.25 25.8136 169.399 29.1516 170.262 32.5705H168.191ZM165.786 24.7583C165.267 26.0228 164.825 27.3187 164.463 28.6388H167.095C166.737 27.3194 166.301 26.0235 165.786 24.7583Z" fill="white"/>
<path d="M170.625 28.6081V22.5928H172.645V28.4648C172.645 30.1184 173.282 30.9477 174.545 30.9477C175.808 30.9477 176.434 30.1184 176.434 28.4648V22.5928H178.455V28.6081C178.528 29.7266 178.166 30.8297 177.444 31.6797C177.061 32.0524 176.605 32.3396 176.105 32.5229C175.606 32.7063 175.074 32.7818 174.545 32.7447C174.014 32.781 173.482 32.705 172.982 32.5217C172.483 32.3384 172.025 32.0517 171.641 31.6797C170.917 30.8309 170.554 29.7269 170.63 28.6081" fill="white"/>
<path d="M180.39 32.5707V22.5929H183.687C184.348 22.5714 185.005 22.6847 185.621 22.9256C186.236 23.1668 186.798 23.5308 187.272 23.9963C187.746 24.4617 188.123 25.0188 188.38 25.6348C188.638 26.2507 188.771 26.9127 188.771 27.5817C188.771 28.2507 188.638 28.9128 188.38 29.5288C188.123 30.1447 187.746 30.702 187.272 31.1674C186.798 31.6327 186.236 31.9968 185.621 32.2378C185.005 32.4789 184.348 32.5921 183.687 32.5707H180.39ZM183.628 24.3284H182.405V30.8301H183.628C185.543 30.8301 186.5 29.7379 186.497 27.5536C186.493 25.3693 185.537 24.2943 183.628 24.3284Z" fill="white"/>
<path d="M192.123 22.5876H190.113V32.5706H192.123V22.5876Z" fill="white"/>
<path d="M203.504 32.5705L202.912 30.3743H199.286C199.087 31.0399 198.89 31.7719 198.695 32.5705H196.624C197.488 29.154 198.631 25.8165 200.043 22.5928H202.14C203.565 25.8128 204.714 29.151 205.574 32.5705H203.504ZM201.1 24.7583C200.579 26.0228 200.137 27.3187 199.776 28.6388H202.408C202.05 27.3194 201.613 26.0235 201.1 24.7583Z" fill="white"/>
<path d="M209.449 28.8642H208.842V32.5706H206.822V22.5927H209.722C210.729 22.5327 211.73 22.8018 212.576 23.3607C212.909 23.6137 213.177 23.9467 213.353 24.33C213.53 24.7132 213.61 25.1348 213.586 25.5569C213.586 26.9904 212.934 27.8794 211.631 28.2242C212.158 28.5184 212.569 28.9862 212.797 29.5501L214.232 32.5706H212.065L210.727 29.7497C210.604 29.4846 210.42 29.2527 210.191 29.074C209.966 28.9267 209.702 28.8535 209.433 28.8642M209.6 24.3284H208.827V27.1543H209.6C210.876 27.1543 211.514 26.678 211.514 25.7259C211.536 25.5194 211.503 25.3109 211.42 25.1214C211.337 24.9317 211.205 24.7676 211.04 24.6457C210.598 24.4057 210.1 24.2958 209.6 24.3284Z" fill="white"/>
<path d="M221.657 32.5705L221.066 30.3743H217.435C217.236 31.0399 217.039 31.7719 216.843 32.5705H214.777C215.638 29.1535 216.78 25.8159 218.193 22.5928H220.289C221.713 25.8128 222.862 29.151 223.723 32.5705H221.657ZM219.248 24.7583C218.728 26.0228 218.286 27.3187 217.924 28.6388H220.561C220.206 27.3187 219.769 26.0226 219.253 24.7583" fill="white"/>
<path d="M228.279 32.5706H224.945V22.5927H227.976C228.909 22.5388 229.838 22.7668 230.643 23.248C230.955 23.4559 231.208 23.743 231.377 24.0808C231.545 24.4184 231.622 24.795 231.602 25.173C231.62 25.581 231.529 25.9866 231.339 26.3469C231.149 26.7072 230.866 27.009 230.522 27.2206C230.976 27.4167 231.361 27.7509 231.62 28.1773C231.88 28.6037 232.003 29.1012 231.971 29.6012C232 30.0223 231.926 30.4442 231.755 30.8293C231.584 31.2142 231.322 31.5504 230.992 31.8077C230.188 32.3483 229.232 32.609 228.269 32.55M226.89 24.3076V26.7189H228.34C228.51 26.7448 228.683 26.7305 228.846 26.6772C229.01 26.6237 229.158 26.5327 229.281 26.4111C229.404 26.2896 229.498 26.1409 229.554 25.9767C229.611 25.8126 229.629 25.6373 229.608 25.4647C229.608 24.6968 229.067 24.3076 227.992 24.3076H226.89ZM226.89 28.2599V30.8197H228.138C228.62 30.8501 229.102 30.753 229.537 30.5381C229.695 30.4379 229.822 30.2955 229.905 30.1265C229.988 29.9575 230.023 29.7687 230.006 29.5808C230.006 28.7053 229.441 28.2701 228.305 28.2701L226.89 28.2599Z" fill="white"/>
<path d="M235.498 22.5876H233.487V32.5706H235.498V22.5876Z" fill="white"/>
<path d="M243.604 32.5705L243.013 30.3743H239.381C239.186 31.0399 238.989 31.7719 238.79 32.5705H236.725C237.585 29.1535 238.727 25.8159 240.139 22.5928H242.235C243.66 25.8128 244.809 29.151 245.67 32.5705H243.604ZM241.195 24.7583C240.675 26.0228 240.232 27.3187 239.872 28.6388H242.503C242.148 27.3187 241.71 26.0226 241.195 24.7583Z" fill="white"/>
<path d="M252.803 28.8641H252.197V32.5705H250.176V22.5927H253.075C254.084 22.5336 255.087 22.8027 255.935 23.3606C256.268 23.6136 256.536 23.9467 256.712 24.3299C256.889 24.7131 256.968 25.1346 256.945 25.5568C256.945 26.9903 256.293 27.8794 254.99 28.2241C255.516 28.5182 255.928 28.9861 256.157 29.55L257.592 32.5705H255.414L254.076 29.7498C253.953 29.4844 253.769 29.2528 253.54 29.0739C253.315 28.9267 253.05 28.8534 252.782 28.8641M252.955 24.3282H252.176V27.1541H252.955C254.227 27.1541 254.864 26.678 254.864 25.7258C254.885 25.5194 254.853 25.3108 254.769 25.1212C254.686 24.9316 254.555 24.7676 254.389 24.6455C253.95 24.4056 253.452 24.2956 252.955 24.3282Z" fill="white"/>
<path d="M265.011 32.5705L264.42 30.3743H260.788C260.59 31.0399 260.392 31.7719 260.198 32.5705H258.132C258.992 29.1535 260.134 25.8159 261.546 22.5928H263.647C265.068 25.8139 266.215 29.152 267.078 32.5705H265.011ZM262.602 24.7583C262.084 26.0231 261.644 27.319 261.284 28.6388H263.91C263.554 27.3187 263.118 26.0226 262.602 24.7583Z" fill="white"/>
<path d="M270.336 22.5876H268.325V32.5706H270.336V22.5876Z" fill="white"/>
<path d="M272.36 32.5706V22.5876H274.371V30.835H278.351V32.5706H272.36Z" fill="white"/>
<path d="M287.656 30.6456C287.954 29.7549 288.278 28.5484 288.625 27.0262C288.972 25.5041 289.243 24.0262 289.438 22.5928H291.494C290.82 26.6882 289.935 30.0142 288.837 32.5705H286.624C285.857 30.5497 285.247 28.4719 284.796 26.3555C284.336 28.471 283.719 30.5485 282.953 32.5705H280.745C280.134 31.0378 279.628 29.464 279.23 27.8606C278.762 26.0585 278.392 24.3027 278.119 22.5928H280.139C280.357 24.0467 280.638 25.5364 280.977 27.0619C281.234 28.2736 281.557 29.4699 281.942 30.6456C282.306 29.6456 282.676 28.4085 283.053 26.9339C283.418 25.5049 283.7 24.0552 283.897 22.5928H285.72C285.927 24.0701 286.214 25.5349 286.579 26.9801C286.877 28.2223 287.245 29.4461 287.68 30.6456" fill="white"/>
<path d="M298.052 32.5705L297.46 30.3743H293.829C293.634 31.0399 293.436 31.7719 293.237 32.5705H291.172C292.033 29.1532 293.178 25.8155 294.591 22.5928H296.687C298.108 25.8139 299.256 29.152 300.117 32.5705H298.052ZM295.647 24.7583C295.12 26.0216 294.673 27.3177 294.308 28.6388H296.939C296.579 27.3202 296.143 26.0244 295.632 24.7583" fill="white"/>
<path d="M303.314 32.5705H301.294V28.5774C299.952 26.7365 298.854 24.7242 298.03 22.5928H300.096C300.676 24.1139 301.418 25.5664 302.309 26.9238C303.194 25.5663 303.93 24.1139 304.501 22.5928H306.572C305.736 24.7176 304.639 26.7282 303.309 28.5774L303.314 32.5705Z" fill="white"/>
<path d="M307.168 32.1611L307.531 30.4306C308.355 30.7716 309.234 30.9555 310.123 30.9734C311.209 30.9734 311.754 30.5945 311.754 29.8368C311.768 29.6603 311.737 29.4832 311.664 29.3221C311.591 29.161 311.479 29.021 311.34 28.9154C310.865 28.6338 310.355 28.4153 309.825 28.2651C309.092 28.0432 308.418 27.6584 307.85 27.1388C307.618 26.8932 307.439 26.6019 307.324 26.2832C307.208 25.9643 307.158 25.6247 307.178 25.2857C307.156 24.887 307.226 24.4888 307.38 24.1214C307.534 23.754 307.769 23.4273 308.067 23.1662C308.795 22.6217 309.69 22.3567 310.592 22.4188C311.499 22.4015 312.398 22.5758 313.234 22.9306L312.84 24.6304C312.167 24.3487 311.447 24.1992 310.718 24.19C309.709 24.19 309.239 24.5331 309.239 25.214C309.23 25.3669 309.255 25.5199 309.314 25.6612C309.373 25.8024 309.462 25.9278 309.578 26.028C309.965 26.2872 310.386 26.4889 310.83 26.627C311.232 26.7643 311.626 26.9232 312.012 27.103C312.336 27.2617 312.641 27.4575 312.921 27.6866C313.209 27.9211 313.433 28.2258 313.572 28.5723C313.721 28.9655 313.795 29.3847 313.785 29.8061C313.806 30.2197 313.729 30.6324 313.557 31.0086C313.387 31.385 313.128 31.7136 312.805 31.9665C312.047 32.5072 311.134 32.7757 310.209 32.7294C309.168 32.7579 308.134 32.5589 307.178 32.1457" fill="white"/>
<path d="M158.766 6.00567L159.862 7.07567L161.171 5.73434L159.831 4.37769L158.766 5.4579L157.675 4.37769L156.352 5.73434L157.685 7.07567L158.766 6.00567Z" fill="white"/>
<path d="M156.977 13.859C156.149 13.859 155.679 13.429 155.679 12.7225C155.679 11.5962 156.649 10.7055 158.396 10.3573V12.7225C158.398 13.0072 158.422 13.2913 158.467 13.5723C157.994 13.7649 157.487 13.8621 156.977 13.859ZM161.169 15.7175H162.337C164.412 15.7175 165.493 14.6116 165.493 12.8812C165.445 11.4889 165.301 10.1016 165.064 8.72932H163.276C163.51 10.0004 163.652 11.2871 163.701 12.5792C163.701 13.429 163.372 13.818 162.337 13.818H161.169C160.417 13.818 160.19 13.4443 160.19 12.7942V7.95117H158.396V8.72932C155.068 9.27709 153.932 11.289 153.932 12.8966C153.932 14.6525 155.098 15.702 156.962 15.702C157.747 15.672 158.509 15.4242 159.164 14.9853C159.437 15.2357 159.756 15.4282 160.103 15.5513C160.45 15.6744 160.818 15.7256 161.184 15.702" fill="white"/>
<path d="M163.276 17.6218L162.21 16.5825L160.887 17.9239L162.235 19.2652L163.276 18.2259L164.327 19.2652L165.65 17.9239L164.312 16.5825L163.276 17.6218Z" fill="white"/>
<path d="M168.878 8.72925C169.842 10.777 170.393 12.446 170.393 12.9835C170.393 13.5212 169.953 13.818 168.928 13.818C168.135 13.8038 167.348 13.6867 166.585 13.4699L166.241 15.2719C167.249 15.5658 168.293 15.7158 169.343 15.7174C171.191 15.7174 172.156 14.8265 172.156 13.2549C172.156 12.277 171.6 10.5313 170.706 8.72925H168.878Z" fill="white"/>
<path d="M184.94 13.4852C184.411 12.5014 183.783 11.575 183.067 10.7208C183.601 10.4782 184.175 10.341 184.759 10.3163C185.865 10.3163 186.506 10.8283 186.506 11.5553C186.506 12.2823 185.88 13.0553 184.94 13.4852ZM177.152 13.859C175.718 13.859 174.934 13.3112 174.934 12.2054C174.918 11.9916 174.945 11.7767 175.014 11.5737C175.083 11.3708 175.191 11.1841 175.333 11.0248C175.474 10.8654 175.647 10.7368 175.838 10.6468C176.03 10.5567 176.238 10.5069 176.45 10.5006C177.288 10.5006 177.783 11.0126 177.859 12.1594C177.859 12.6713 177.929 13.1833 177.955 13.8489H177.147M203.413 12.5689C203.413 13.4188 203.084 13.8079 202.049 13.8079C201.457 13.8207 200.871 13.6702 200.357 13.3727C200.589 12.3923 200.694 11.3856 200.67 10.3778V9.35389H199.003V10.3778C199.003 11.7447 198.933 12.6099 198.69 13.132C198.584 13.3642 198.406 13.5554 198.184 13.6773C197.962 13.7989 197.708 13.8448 197.458 13.8079C196.969 13.8065 196.487 13.6927 196.048 13.4751C196.306 12.4728 196.419 11.4384 196.387 10.4034H194.709C194.709 11.7703 194.639 12.6355 194.396 13.1577C194.289 13.3903 194.111 13.5817 193.888 13.7033C193.666 13.8251 193.409 13.8707 193.159 13.8334C192.632 13.8292 192.113 13.7012 191.644 13.4597C191.883 12.4543 191.993 11.4219 191.972 10.388H190.305C190.305 11.7549 190.235 12.6201 189.992 13.1423C189.915 13.3633 189.766 13.5509 189.569 13.6738C189.373 13.7968 189.141 13.8477 188.911 13.818C188.279 13.8279 187.647 13.7885 187.022 13.7003C187.394 13.3741 187.694 12.9722 187.904 12.5205C188.112 12.0689 188.225 11.5778 188.234 11.0792C188.234 9.6099 186.911 8.44264 184.91 8.44264C183.673 8.44264 182.107 9.03138 180.501 10.1013L181.239 11.6371L181.637 11.4222C182.258 12.1135 182.802 12.8724 183.259 13.685C182.339 13.803 181.413 13.856 180.486 13.8437H179.697C179.697 13.0502 179.667 12.5484 179.637 12.0416C179.526 9.88123 178.318 8.65768 176.541 8.65768C174.636 8.65768 173.212 10.1935 173.212 12.2874C173.212 14.3812 174.677 15.743 176.94 15.743H177.905C177.591 16.6542 176.389 17.202 174.419 17.202V18.8096C177.955 18.8096 179.471 17.5554 179.697 15.7071H180.506C182.698 15.7071 183.719 15.5536 185.168 14.929C186.331 15.4907 187.608 15.7677 188.895 15.7378C189.292 15.7594 189.688 15.6858 190.052 15.5231C190.415 15.3602 190.736 15.1129 190.987 14.801C191.952 15.4154 192.563 15.7378 193.286 15.7378C193.673 15.757 194.06 15.6868 194.417 15.5325C194.774 15.3782 195.092 15.1438 195.346 14.8471C196.255 15.4511 196.861 15.7378 197.564 15.7378C197.976 15.7572 198.386 15.6773 198.763 15.5046C199.138 15.332 199.468 15.0715 199.726 14.7447C200.342 15.3588 201.164 15.7138 202.028 15.7378C204.105 15.7378 205.186 14.6321 205.186 12.9017V5.27368H203.388L203.413 12.5689Z" fill="white"/>
<path d="M209.272 5.27368H207.479V15.7226H209.272V5.27368Z" fill="white"/>
<path d="M218.793 6.00567L219.889 7.07567L221.197 5.73434L219.864 4.37769L218.793 5.4579L217.702 4.37769L216.379 5.73434L217.717 7.07567L218.793 6.00567Z" fill="white"/>
<path d="M223.303 17.6218L222.232 16.5825L220.914 17.9239L222.263 19.2652L223.303 18.2259L224.354 19.2652L225.678 17.9239L224.339 16.5825L223.303 17.6218Z" fill="white"/>
<path d="M217.026 13.859C216.197 13.859 215.727 13.429 215.727 12.7225C215.727 11.5962 216.697 10.7055 218.445 10.3573V12.7225C218.446 13.0072 218.47 13.2913 218.516 13.5723C218.042 13.7649 217.536 13.8621 217.026 13.859ZM221.218 15.7175H222.385C224.461 15.7175 225.542 14.6116 225.542 12.8812C225.493 11.4889 225.349 10.1016 225.112 8.72932H223.324C223.558 10.0004 223.7 11.2871 223.748 12.5792C223.748 13.429 223.42 13.818 222.385 13.818H221.218C220.465 13.818 220.238 13.4443 220.238 12.7942V7.95117H218.445V8.72932C215.116 9.27709 213.979 11.289 213.979 12.8966C213.979 14.6525 215.146 15.702 217.011 15.702C217.796 15.672 218.557 15.4242 219.213 14.9853C219.485 15.2357 219.804 15.4282 220.151 15.5513C220.499 15.6744 220.866 15.7256 221.233 15.702" fill="white"/>
<path d="M233.38 15.7377H234.548C236.624 15.7377 237.704 14.632 237.704 12.9016C237.658 11.5094 237.516 10.1221 237.28 8.74976H235.487C235.721 10.0208 235.863 11.3075 235.912 12.5996C235.912 13.4494 235.588 13.8385 234.548 13.8385H233.38C233.025 13.8452 232.678 13.7249 232.401 13.4983C232.123 13.2718 231.934 12.9536 231.866 12.5996C231.521 11.3369 231.269 10.0501 231.113 8.74976H229.264C229.506 10.2671 229.853 11.7656 230.3 13.2344L230.471 13.6798C229.92 13.7932 229.357 13.8464 228.794 13.8385C228.047 13.8316 227.305 13.7145 226.592 13.4903L226.248 15.2924C227.058 15.5914 227.913 15.7422 228.774 15.7377C229.694 15.7474 230.595 15.4762 231.36 14.9597C231.905 15.4799 232.632 15.7598 233.38 15.7377Z" fill="white"/>
<path d="M235.487 17.6218L234.421 16.5825L233.098 17.9239L234.446 19.2652L235.487 18.2259L236.537 19.2652L237.861 17.9239L236.522 16.5825L235.487 17.6218Z" fill="white"/>
<path d="M255.92 12.5791C255.92 13.429 255.592 13.818 254.556 13.818C253.687 13.818 253.217 13.6184 253.005 13.2703L253.444 13.1833L253.95 11.3403C251.348 10.6747 250.384 8.63204 248.237 8.63204C247.527 8.66111 246.834 8.86305 246.216 9.22078L246.721 10.8334C247.167 10.625 247.651 10.5117 248.141 10.5006C249.394 10.5006 250.091 11.4273 251.712 12.2157C250.035 12.8658 248.909 13.818 245.595 13.818C245.239 13.8249 244.892 13.7044 244.615 13.4779C244.338 13.2513 244.148 12.9332 244.08 12.5791C243.735 11.3165 243.484 10.0298 243.327 8.7293H241.478C241.72 10.2473 242.067 11.7461 242.519 13.214L242.685 13.6594C242.134 13.7728 241.571 13.8259 241.009 13.818C240.262 13.8113 239.52 13.6939 238.806 13.47L238.463 15.272C239.272 15.571 240.127 15.7219 240.989 15.7174C241.908 15.7269 242.809 15.4558 243.575 14.9393C244.12 15.459 244.847 15.7388 245.595 15.7174C249.363 15.7174 249.965 14.3915 251.883 13.6184C252.05 15.0007 252.975 15.7174 254.556 15.7174C256.632 15.7174 257.713 14.6115 257.713 12.8812V5.27368H255.92V12.5791Z" fill="white"/>
<path d="M261.779 5.27368H259.985V15.7226H261.779V5.27368Z" fill="white"/>
<path d="M271.698 13.818C270.931 13.818 270.219 13.7874 269.511 13.731C272.037 10.9051 272.992 9.95797 274.274 9.95797C274.487 9.94408 274.699 9.9741 274.9 10.0464C275.1 10.1186 275.284 10.2316 275.439 10.3782C275.594 10.5249 275.719 10.7023 275.804 10.8993C275.89 11.0965 275.935 11.3092 275.937 11.5246C275.937 12.8505 274.274 13.818 271.698 13.818ZM274.608 8.05864C273.093 8.05864 271.896 8.89316 269.719 11.2993C269.942 10.3836 270.07 9.44677 270.102 8.50405V5.27881H268.31V12.9222C268.153 13.1269 267.981 13.3112 267.804 13.516C267.359 13.4597 266.935 13.3727 266.511 13.2857L266.168 15.0723C267.941 15.4983 269.756 15.7215 271.578 15.7378C275.543 15.7378 277.75 13.9511 277.75 11.2891C277.773 10.8628 277.706 10.4367 277.557 10.0377C277.407 9.63873 277.178 9.27573 276.882 8.97182C276.586 8.66783 276.232 8.42971 275.839 8.27249C275.448 8.11526 275.029 8.04243 274.608 8.05864Z" fill="white"/>
<path d="M302.653 6.39478L301.314 5.05859L299.996 6.39478L301.329 7.73612L302.653 6.39478Z" fill="white"/>
<path d="M290.823 13.8181H288.62C291.095 11.0381 292.116 9.95289 293.369 9.95289C293.58 9.93956 293.792 9.97038 293.991 10.0434C294.19 10.1163 294.374 10.2301 294.527 10.3773C294.681 10.5246 294.805 10.7024 294.888 10.8998C294.973 11.0971 295.015 11.3097 295.015 11.5245C295.015 12.8504 293.354 13.8181 290.823 13.8181ZM282.74 13.859C281.306 13.859 280.523 13.3113 280.523 12.2054C280.507 11.9916 280.535 11.7767 280.604 11.5738C280.671 11.3708 280.78 11.184 280.921 11.0247C281.064 10.8654 281.234 10.7368 281.427 10.6467C281.619 10.5566 281.827 10.507 282.039 10.5007C282.877 10.5007 283.377 11.0126 283.449 12.1593C283.478 12.6713 283.519 13.1833 283.549 13.8488H282.735M308.047 12.5689C308.047 13.4187 307.719 13.8078 306.679 13.8078C305.815 13.8078 305.345 13.6031 305.133 13.2601L305.572 13.173L306.077 11.33C303.476 10.6644 302.511 8.62178 300.364 8.62178C299.654 8.65029 298.961 8.85223 298.344 9.21052L298.849 10.8232C299.296 10.6147 299.782 10.5015 300.272 10.4904C301.526 10.4904 302.222 11.417 303.844 12.2054C302.163 12.8556 301.041 13.8078 297.728 13.8078C297.202 13.817 296.682 13.6975 296.212 13.4597C296.634 12.8061 296.852 12.0392 296.838 11.2583C296.855 10.837 296.785 10.4168 296.635 10.0236C296.486 9.63022 296.258 9.27217 295.966 8.97113C295.675 8.67017 295.326 8.43262 294.942 8.27307C294.556 8.11353 294.142 8.03528 293.727 8.04326C292.287 8.04326 290.995 8.90845 288.949 11.3147C289.172 10.3885 289.301 9.44153 289.332 8.48867V5.26343H287.539V13.0296C287.343 13.2907 287.14 13.5415 286.943 13.8078H285.308C285.308 13.0143 285.308 12.5126 285.252 12.0058C285.134 9.84534 283.928 8.62178 282.15 8.62178C280.246 8.62178 278.826 10.1576 278.826 12.2515C278.826 14.3454 280.291 15.7071 282.55 15.7071H283.519C283.205 16.6184 282.004 17.1662 280.034 17.1662V18.8096C283.569 18.8096 285.084 17.5553 285.308 15.7071H290.995C292.491 15.7757 293.971 15.3579 295.217 14.5143C295.539 14.8727 295.929 15.1628 296.361 15.3675C296.795 15.5723 297.265 15.6878 297.742 15.7071C301.511 15.7071 302.107 14.3812 304.026 13.6082C304.199 14.9904 305.123 15.7071 306.698 15.7071C308.774 15.7071 309.855 14.6014 309.855 12.871V5.27366H308.068L308.047 12.5689Z" fill="white"/>
<path d="M313.932 5.27368H312.139V15.7226H313.932V5.27368Z" fill="white"/>
<path d="M344.778 32.5706H353.706L362.074 5.07007H359.076L344.778 32.5706Z" fill="white"/>
<path d="M366.351 5.073H363.355L371.724 32.5706H380.651L366.351 5.073Z" fill="white"/>
<path d="M320.383 27.2286V32.5504H335.347C337.494 32.5335 339.545 31.6532 341.05 30.1031C342.558 28.553 343.394 26.4602 343.377 24.2849C343.36 22.1096 342.492 20.0301 340.963 18.5039C339.433 16.9777 337.368 16.1296 335.222 16.1465H327.175C326.43 16.1457 325.715 15.8454 325.189 15.3114C324.662 14.7774 324.366 14.0533 324.364 13.298V13.2346C324.366 12.4793 324.662 11.7552 325.189 11.2212C325.715 10.6872 326.43 10.3868 327.175 10.3861H340.669V5.05859H327.001C324.876 5.09266 322.849 5.97194 321.358 7.50679C319.867 9.04168 319.03 11.1092 319.028 13.2634C319.032 15.4411 319.888 17.5284 321.407 19.0669C322.928 20.6053 324.989 21.469 327.137 21.4682H335.185C335.93 21.469 336.643 21.769 337.17 22.3023C337.697 22.8358 337.994 23.5591 337.995 24.3138V24.3947C337.995 25.1499 337.697 25.8738 337.171 26.4079C336.644 26.9419 335.93 27.2423 335.185 27.2431L320.383 27.2286Z" fill="white"/>
<path d="M384.885 32.5707H390.01C390.028 32.5707 390.045 32.5636 390.056 32.5511C390.069 32.5386 390.076 32.5218 390.076 32.5041V10.4467C390.076 10.4299 390.082 10.4137 390.094 10.4018C390.105 10.3899 390.121 10.3832 390.138 10.3832H399.25C400.012 10.3832 400.742 10.69 401.281 11.2361C401.821 11.7822 402.124 12.5229 402.124 13.2952C402.122 14.0504 401.826 14.7745 401.299 15.3084C400.772 15.8425 400.058 16.1428 399.314 16.1436H392.946C392.935 16.1438 392.923 16.1468 392.914 16.1525C392.904 16.1582 392.896 16.1664 392.89 16.1763C392.884 16.1862 392.882 16.1975 392.882 16.2089C392.88 16.2204 392.883 16.2317 392.89 16.2417L402.016 32.4753C402.02 32.4857 402.029 32.4944 402.039 32.5005C402.049 32.5066 402.061 32.5099 402.072 32.5099H407.723C407.735 32.5099 407.747 32.5068 407.756 32.5011C407.767 32.4953 407.775 32.4871 407.779 32.4772C407.786 32.4674 407.788 32.4562 407.788 32.4447C407.79 32.4333 407.786 32.422 407.781 32.4118L401.741 21.8204L401.457 21.2921C401.451 21.284 401.449 21.2749 401.449 21.2655C401.448 21.2561 401.449 21.2466 401.453 21.2378C401.455 21.229 401.461 21.2209 401.467 21.2144C401.474 21.2077 401.483 21.2028 401.49 21.1998L402.061 20.9949C402.872 20.7015 403.631 20.2798 404.314 19.7453C405.61 18.7265 406.57 17.3324 407.068 15.7479C407.564 14.1634 407.574 12.4631 407.097 10.8725C406.619 9.28179 405.676 7.8757 404.393 6.84059C403.108 5.80542 401.545 5.19003 399.908 5.07591C399.763 5.07591 399.623 5.06148 399.476 5.05859H384.896C384.879 5.05859 384.862 5.06559 384.849 5.07803C384.837 5.09049 384.831 5.10737 384.831 5.12497V32.5041C384.831 32.5218 384.837 32.5386 384.849 32.5511C384.862 32.5636 384.879 32.5707 384.896 32.5707" fill="white"/>
</g>
</g>
</g>
</g>
<defs>
<clipPath id="clip0_17_1565">
<rect width="411.498" height="37.5299" fill="white" transform="translate(0.501953 0.235107)"/>
</clipPath>
<clipPath id="clip1_17_1565">
<rect width="411.498" height="37.5299" fill="white" transform="translate(0.501953 0.235107)"/>
</clipPath>
<clipPath id="clip2_17_1565">
<rect width="116.797" height="33" fill="white" transform="translate(0.501953 2.5)"/>
</clipPath>
</defs>
</svg>
